<svg width="1546" height="1501" viewBox="0 0 1546 1501" fill="none" xmlns="http://www.w3.org/2000/svg">
<path d="M494.702 1439.14H515.669C521.04 1439.14 525.719 1439.48 529.704 1440.35C533.516 1441.04 537.155 1442.6 540.274 1444.68C548.591 1450.05 552.576 1458.2 552.576 1469.11C552.576 1480.03 552.23 1476.04 551.364 1478.99C550.497 1481.94 549.284 1484.71 547.552 1486.96C545.819 1489.39 543.566 1491.47 540.967 1493.37C538.888 1494.76 536.462 1495.97 534.036 1496.84C531.437 1497.7 528.838 1498.4 525.892 1498.74C522.946 1499.09 519.654 1499.26 516.015 1499.26H495.049C492.103 1499.26 489.851 1498.92 488.464 1498.22C486.905 1497.53 486.039 1496.66 485.519 1495.45C484.999 1494.24 484.826 1492.68 484.826 1490.77V1446.76C484.826 1444.16 485.519 1442.26 487.078 1441.04C488.638 1439.83 491.064 1439.31 494.529 1439.31L494.702 1439.14ZM500.767 1448.67V1489.39H512.896C515.496 1489.39 517.575 1489.39 519.134 1489.39C520.694 1489.39 522.253 1489.04 523.813 1488.52C525.372 1488 526.758 1487.48 527.971 1486.61C533.343 1483.15 535.942 1477.26 535.942 1468.94C535.942 1460.62 534.729 1458.54 532.477 1455.6C530.051 1452.65 527.278 1450.75 523.813 1450.05C520.347 1449.19 516.189 1448.84 511.337 1448.84H500.767V1448.67Z" fill="#22d3ee"/>
<path d="M618.768 1448.49H582.553V1463.22H615.822C618.248 1463.22 620.154 1463.57 621.367 1464.44C622.58 1465.3 623.1 1466.34 623.1 1467.73C623.1 1469.11 622.58 1470.15 621.367 1471.02C620.154 1471.89 618.421 1472.23 615.822 1472.23H582.553V1489.21H619.981C622.58 1489.21 624.486 1489.73 625.699 1490.6C626.912 1491.47 627.605 1492.68 627.605 1494.07C627.605 1495.45 626.912 1496.67 625.699 1497.53C624.486 1498.4 622.58 1498.92 619.981 1498.92H576.315C572.85 1498.92 570.251 1498.4 568.691 1497.18C567.132 1495.97 566.438 1494.07 566.438 1491.47V1446.42C566.438 1444.68 566.785 1443.3 567.478 1442.08C568.171 1441.04 569.211 1440.18 570.77 1439.66C572.157 1439.14 574.063 1438.96 576.315 1438.96H618.595C621.194 1438.96 623.1 1439.31 624.313 1440.18C625.526 1441.04 626.219 1442.08 626.219 1443.47C626.219 1444.86 625.526 1446.07 624.313 1446.93C623.1 1447.8 621.194 1448.15 618.595 1448.15L618.768 1448.49Z" fill="#22d3ee"/>
<path d="M700.554 1481.07C700.554 1484.71 699.341 1488 696.915 1490.77C694.489 1493.72 690.85 1495.97 685.999 1497.53C681.32 1499.09 675.602 1499.96 669.018 1499.96C662.433 1499.96 654.809 1498.92 649.611 1496.67C645.972 1495.11 643.026 1492.85 640.774 1490.25C638.521 1487.48 637.481 1484.88 637.481 1482.46C637.481 1480.03 638.175 1479.68 639.561 1478.64C640.947 1477.61 642.68 1477.09 644.759 1477.09C646.838 1477.09 647.878 1477.43 649.091 1478.3C650.304 1479.16 651.344 1480.38 652.037 1481.94C653.076 1483.84 654.116 1485.4 655.329 1486.79C656.542 1488 658.101 1489.04 660.354 1489.91C662.433 1490.77 665.206 1491.12 668.671 1491.12C672.137 1491.12 677.335 1490.25 680.281 1488.52C683.226 1486.79 684.786 1484.71 684.786 1482.28C684.786 1479.86 683.919 1478.64 682.36 1477.43C680.8 1476.22 678.721 1475.18 676.122 1474.66C673.523 1473.97 670.231 1473.27 665.899 1472.58C660.181 1471.54 655.502 1470.33 651.69 1469.11C647.878 1467.73 644.759 1466 642.506 1463.57C640.254 1461.32 639.041 1458.37 639.041 1454.91C639.041 1451.44 640.254 1448.67 642.68 1446.07C645.106 1443.47 648.571 1441.56 653.076 1440.18C657.581 1438.79 662.953 1438.1 669.018 1438.1C675.082 1438.1 678.028 1438.62 681.667 1439.48C685.132 1440.35 688.078 1441.56 690.504 1443.12C692.93 1444.68 694.489 1446.24 695.702 1447.8C696.915 1449.36 697.262 1451.09 697.262 1452.65C697.262 1454.21 696.568 1455.43 695.182 1456.64C693.796 1457.85 692.063 1458.37 690.157 1458.37C688.251 1458.37 686.865 1458.02 685.999 1457.33C684.959 1456.64 684.093 1455.43 682.88 1453.87C681.494 1451.61 679.761 1449.88 677.681 1448.49C675.602 1447.28 672.483 1446.59 667.978 1446.59C663.473 1446.59 660.527 1447.28 657.928 1448.67C655.329 1450.05 654.116 1451.61 654.116 1453.69C654.116 1455.77 654.462 1455.95 655.329 1456.81C656.195 1457.68 657.408 1458.37 658.968 1459.06C660.527 1459.76 662.087 1460.1 663.473 1460.45C665.032 1460.8 667.631 1461.32 671.097 1462.01C675.602 1462.88 679.588 1463.74 683.226 1464.61C686.865 1465.48 689.984 1466.69 692.41 1468.07C695.009 1469.46 696.915 1471.19 698.301 1473.27C699.688 1475.35 700.381 1477.95 700.381 1480.9L700.554 1481.07Z" fill="#22d3ee"/>
<path d="M714.936 1492.68V1445.55C714.936 1443.12 715.629 1441.22 717.189 1440C718.748 1438.79 720.654 1438.1 722.907 1438.1C725.159 1438.1 727.239 1438.62 728.798 1439.83C730.358 1441.04 731.051 1442.95 731.051 1445.38V1492.51C731.051 1494.93 730.358 1496.84 728.798 1498.05C727.239 1499.26 725.333 1499.96 722.907 1499.96C720.481 1499.96 718.748 1499.26 717.189 1498.05C715.629 1496.84 714.936 1494.93 714.936 1492.51V1492.68Z" fill="#22d3ee"/>
<path d="M821.154 1474.66V1486.09C821.154 1487.65 820.981 1488.87 820.634 1489.73C820.288 1490.6 819.594 1491.47 818.382 1492.16C817.342 1492.85 815.956 1493.55 814.223 1494.24C809.371 1496.14 804.866 1497.7 800.361 1498.57C795.856 1499.44 791.177 1499.96 785.806 1499.96C780.434 1499.96 774.196 1499.26 769.171 1497.88C764.146 1496.49 759.814 1494.41 756.349 1491.64C752.883 1488.87 750.111 1485.75 748.205 1481.76C746.299 1477.95 745.432 1473.62 745.432 1468.94C745.432 1464.26 746.299 1459.93 748.205 1456.12C750.111 1452.31 752.71 1449.01 756.349 1446.24C759.988 1443.47 764.32 1441.56 769.345 1440C774.543 1438.62 780.261 1437.92 786.672 1437.92C793.083 1437.92 796.722 1438.44 800.881 1439.48C805.039 1440.52 808.332 1441.91 810.931 1443.47C813.53 1445.03 815.436 1446.76 816.649 1448.67C817.862 1450.57 818.555 1452.13 818.555 1453.52C818.555 1454.91 817.862 1456.29 816.302 1457.5C814.743 1458.54 813.01 1459.06 810.931 1459.06C808.851 1459.06 808.678 1458.89 807.638 1458.37C806.599 1458.02 805.732 1457.33 805.039 1456.64C803.133 1454.21 801.4 1452.48 800.014 1451.27C798.628 1450.05 796.722 1449.01 794.47 1448.32C792.217 1447.45 789.098 1447.11 785.632 1447.11C782.167 1447.11 778.528 1447.63 775.756 1448.49C772.81 1449.53 770.384 1450.92 768.305 1452.65C766.225 1454.56 764.666 1456.81 763.626 1459.41C762.587 1462.01 761.894 1464.96 761.894 1468.25C761.894 1475.35 763.973 1480.72 768.305 1484.54C772.637 1488.35 778.528 1490.25 786.152 1490.25C793.776 1490.25 793.43 1489.91 796.549 1489.21C799.841 1488.52 803.133 1487.48 806.425 1486.09V1476.39H793.95C791.004 1476.39 788.751 1476.04 787.192 1475.35C785.632 1474.66 784.939 1473.45 784.939 1471.89C784.939 1470.33 785.632 1469.46 786.845 1468.59C788.058 1467.73 789.791 1467.21 792.044 1467.21H810.238C812.49 1467.21 814.396 1467.21 815.956 1467.73C817.515 1468.07 818.728 1468.77 819.768 1469.81C820.807 1470.85 821.154 1472.41 821.154 1474.49V1474.66Z" fill="#22d3ee"/>
<path d="M857.368 1445.38L888.211 1480.72V1445.03C888.211 1442.78 888.905 1441.04 890.117 1439.83C891.504 1438.62 893.236 1438.1 895.489 1438.1C897.742 1438.1 899.648 1438.62 900.861 1439.83C902.247 1441.04 902.94 1442.78 902.94 1445.03V1492.16C902.94 1497.36 899.994 1500.13 894.276 1500.13C888.558 1500.13 891.504 1500.13 890.464 1499.61C889.251 1499.26 888.212 1498.74 887.172 1498.05C886.132 1497.36 885.266 1496.49 884.399 1495.63C883.533 1494.76 882.667 1493.72 881.8 1492.85L851.65 1458.02V1493.2C851.65 1495.45 850.957 1497.19 849.571 1498.4C848.185 1499.61 846.279 1500.13 844.199 1500.13C842.12 1500.13 840.041 1499.61 838.828 1498.4C837.442 1497.19 836.749 1495.45 836.749 1493.2V1446.94C836.749 1445.03 837.095 1443.47 837.615 1442.26C838.308 1441.04 839.348 1440 841.08 1439.31C842.64 1438.62 844.373 1438.1 846.279 1438.1C848.185 1438.1 848.878 1438.27 849.918 1438.62C850.957 1438.96 851.824 1439.48 852.69 1440C853.383 1440.52 854.249 1441.39 855.116 1442.26C855.982 1443.12 856.849 1444.16 857.542 1445.2L857.368 1445.38Z" fill="#22d3ee"/>
<path d="M972.77 1448.49H936.556V1463.22H969.825C972.25 1463.22 974.156 1463.57 975.369 1464.44C976.582 1465.3 977.102 1466.34 977.102 1467.73C977.102 1469.11 976.582 1470.15 975.369 1471.02C974.156 1471.89 972.424 1472.23 969.825 1472.23H936.556V1489.21H973.983C976.582 1489.21 978.488 1489.73 979.701 1490.6C980.914 1491.47 981.607 1492.68 981.607 1494.07C981.607 1495.45 980.914 1496.67 979.701 1497.53C978.488 1498.4 976.582 1498.92 973.983 1498.92H930.318C926.852 1498.92 924.253 1498.4 922.694 1497.18C921.134 1495.97 920.441 1494.07 920.441 1491.47V1446.42C920.441 1444.68 920.788 1443.3 921.481 1442.08C922.174 1441.04 923.213 1440.18 924.773 1439.66C926.159 1439.14 928.065 1438.96 930.318 1438.96H972.597C975.196 1438.96 977.102 1439.31 978.315 1440.18C979.528 1441.04 980.221 1442.08 980.221 1443.47C980.221 1444.86 979.528 1446.07 978.315 1446.93C977.102 1447.8 975.196 1448.15 972.597 1448.15L972.77 1448.49Z" fill="#22d3ee"/>
<path d="M1015.92 1473.45H1010.37V1492.68C1010.37 1495.28 1009.68 1497.01 1008.12 1498.22C1006.56 1499.44 1004.65 1499.96 1002.4 1499.96C1000.15 1499.96 997.895 1499.26 996.509 1498.05C995.123 1496.84 994.43 1494.93 994.43 1492.51V1446.42C994.43 1443.82 995.123 1441.91 996.682 1440.7C998.242 1439.48 1000.67 1438.96 1004.13 1438.96H1030.3C1033.94 1438.96 1037.06 1438.96 1039.48 1439.31C1042.08 1439.48 1044.33 1440 1046.41 1440.7C1048.84 1441.56 1051.09 1442.6 1053 1444.16C1054.9 1445.55 1056.29 1447.28 1057.33 1449.36C1058.37 1451.27 1058.89 1453.35 1058.89 1455.6C1058.89 1460.1 1057.16 1463.57 1053.86 1466.34C1050.57 1468.94 1045.55 1470.85 1038.79 1472.06C1041.56 1473.27 1044.33 1474.83 1046.93 1477.09C1049.53 1479.34 1051.78 1481.76 1053.86 1484.19C1055.94 1486.79 1057.5 1489.04 1058.54 1490.95C1059.75 1493.03 1060.27 1494.41 1060.27 1495.11C1060.27 1495.8 1059.93 1496.67 1059.23 1497.53C1058.54 1498.22 1057.68 1498.92 1056.46 1499.44C1055.25 1499.96 1054.04 1500.13 1052.48 1500.13C1050.92 1500.13 1049.18 1499.78 1047.97 1499.09C1046.76 1498.4 1045.72 1497.7 1044.85 1496.67C1043.99 1495.63 1042.77 1494.24 1041.21 1492.33L1034.8 1484.19C1032.55 1481.24 1030.47 1478.99 1028.57 1477.43C1026.66 1475.87 1024.93 1474.83 1023.02 1474.31C1021.11 1473.79 1018.86 1473.45 1015.92 1473.45ZM1025.1 1448.15H1010.37V1464.61H1024.75C1028.57 1464.61 1031.86 1464.44 1034.46 1463.92C1037.06 1463.4 1039.13 1462.53 1040.52 1461.32C1041.91 1460.1 1042.6 1458.37 1042.6 1456.29C1042.6 1454.21 1042.08 1453.17 1040.87 1451.96C1039.83 1450.75 1038.27 1449.71 1036.19 1449.19C1034.28 1448.67 1030.64 1448.32 1025.1 1448.32V1448.15Z" fill="#22d3ee"/>
<path d="M121.466 1333.44L65.1517 1188.93V1345.57C65.1517 1354.23 62.206 1360.82 56.1413 1365.15C50.0767 1369.48 42.2793 1371.73 32.4026 1371.73C22.5259 1371.73 15.075 1369.65 9.01036 1365.32C2.94571 1360.99 0 1354.58 0 1345.74V1166.23C0 1156.35 3.98533 1149.59 11.956 1146.13C19.9267 1142.66 30.6698 1140.93 44.1853 1140.93H66.1914C79.3603 1140.93 89.0637 1141.62 95.1284 1143.18C101.193 1144.74 105.525 1147.51 108.471 1151.5C111.416 1155.49 114.535 1162.07 118.347 1171.08L169.29 1295.32L220.234 1171.08C223.872 1162.07 227.165 1155.49 230.11 1151.5C233.056 1147.51 237.388 1144.74 243.452 1143.18C249.517 1141.62 259.047 1140.93 272.216 1140.93H294.222C307.738 1140.93 318.481 1142.66 326.452 1146.13C334.422 1149.59 338.408 1156.35 338.408 1166.23V1345.74C338.408 1354.41 335.462 1360.99 329.397 1365.32C323.333 1369.65 315.362 1371.91 305.312 1371.91C295.262 1371.91 288.158 1369.65 282.093 1365.32C276.028 1360.99 273.083 1354.58 273.083 1345.74V1189.1L216.768 1333.61C213.129 1342.97 210.184 1349.9 207.758 1354.23C205.505 1358.56 201.173 1362.55 194.935 1366.19C188.697 1369.83 180.034 1371.56 169.117 1371.56C158.201 1371.56 153.869 1370.35 147.978 1368.09C142.086 1365.84 137.754 1362.9 134.635 1359.26C131.516 1355.62 128.917 1351.63 127.011 1347.3C125.105 1342.97 123.372 1338.29 121.466 1333.61V1333.44Z" fill="#22d3ee"/>
<path d="M642.507 1176.28H482.4V1231.9H629.857C640.774 1231.9 648.744 1233.46 654.116 1236.58C659.488 1239.7 662.087 1243.86 662.087 1249.05C662.087 1254.25 659.488 1258.41 654.116 1261.7C648.918 1265 640.774 1266.56 629.684 1266.56H482.226V1331.01H647.878C658.968 1331.01 667.458 1332.75 673.176 1336.04C678.894 1339.33 681.667 1343.84 681.667 1349.38C681.667 1354.93 678.894 1359.08 673.176 1362.38C667.458 1365.67 659.141 1367.4 647.878 1367.4H454.676C439.254 1367.4 427.991 1365.15 421.233 1360.82C414.476 1356.31 411.01 1349.21 411.01 1339.33V1168.83C411.01 1162.24 412.57 1156.87 415.515 1152.71C418.461 1148.55 423.313 1145.44 429.724 1143.53C436.135 1141.62 444.452 1140.76 454.502 1140.76H642.16C653.423 1140.76 661.913 1142.32 667.458 1145.61C673.003 1148.9 675.775 1153.06 675.775 1158.43C675.775 1163.8 673.003 1168.13 667.458 1171.43C661.913 1174.72 653.596 1176.28 642.16 1176.28H642.507Z" fill="#22d3ee"/>
<path d="M892.717 1136.94C929.105 1136.94 960.294 1141.8 986.459 1151.33C1012.62 1160.86 1032.38 1174.37 1045.72 1192.05C1059.06 1209.72 1065.82 1230.34 1065.82 1254.08C1065.82 1277.82 1062.18 1287.52 1054.73 1301.9C1047.45 1316.29 1036.36 1328.59 1021.63 1339.16C1006.91 1349.73 988.885 1357.7 967.572 1363.24C946.259 1368.79 921.654 1371.56 894.103 1371.56C866.552 1371.56 842.12 1368.61 820.461 1362.9C798.801 1357.18 780.607 1349.03 766.052 1338.64C751.497 1328.24 740.581 1315.77 733.13 1301.04C725.679 1286.31 722.04 1270.54 722.04 1253.56C722.04 1236.58 725.852 1220.12 733.65 1205.56C741.447 1191.01 752.537 1178.7 767.265 1168.48C781.994 1158.26 799.841 1150.46 820.807 1145.09C841.947 1139.72 865.859 1136.94 892.543 1136.94H892.717ZM993.563 1253.56C993.563 1236.92 989.405 1222.54 981.087 1210.41C972.77 1198.28 960.987 1189.1 945.566 1182.86C930.144 1176.62 912.47 1173.51 892.543 1173.51C872.617 1173.51 865.166 1175.24 853.21 1178.7C841.081 1182.17 830.857 1187.19 822.02 1193.78C813.356 1200.36 806.425 1208.85 801.4 1219.08C796.375 1229.3 793.776 1240.91 793.776 1253.73C793.776 1266.56 796.375 1278.34 801.4 1288.73C806.425 1299.13 813.53 1307.79 822.713 1314.73C831.897 1321.66 842.467 1326.68 854.25 1330.15C866.206 1333.61 879.201 1335.17 893.41 1335.17C907.618 1335.17 928.238 1332.23 943.487 1326.34C958.735 1320.44 970.864 1311.43 979.875 1299.13C988.885 1286.83 993.39 1271.75 993.39 1253.73L993.563 1253.56Z" fill="#22d3ee"/>
<path d="M1380.83 1331.88L1324.17 1195.86L1266.65 1331.88C1262.14 1342.28 1258.68 1349.55 1256.08 1354.06C1253.48 1358.57 1248.8 1362.55 1242.39 1366.19C1235.8 1369.83 1227.14 1371.56 1216.22 1371.56C1205.31 1371.56 1200.28 1370.52 1194.56 1368.44C1188.85 1366.36 1184.34 1363.42 1180.87 1359.43C1177.41 1355.62 1174.46 1350.94 1172.21 1345.74C1169.96 1340.37 1168.05 1335.52 1166.15 1331.01L1107.75 1178.36C1104.29 1169.52 1102.55 1162.76 1102.55 1158.09C1102.55 1153.41 1105.67 1147.17 1112.08 1143.18C1118.5 1139.2 1126.29 1137.12 1135.82 1137.12C1145.35 1137.12 1157.48 1139.72 1161.99 1145.09C1166.49 1150.46 1170.3 1158.26 1173.77 1168.48L1219.69 1300.86L1271.15 1176.97C1274.96 1167.44 1278.43 1160.34 1281.37 1155.31C1284.32 1150.29 1289.35 1146.13 1296.28 1142.49C1303.21 1138.85 1312.39 1137.12 1324.35 1137.12C1336.3 1137.12 1345.66 1139.02 1352.24 1142.84C1358.83 1146.65 1363.51 1150.63 1365.93 1155.14C1368.53 1159.64 1372 1166.92 1376.16 1177.15L1428.14 1301.04L1474.06 1168.65C1476.31 1161.72 1478.39 1156.35 1480.47 1152.37C1482.37 1148.38 1485.84 1144.92 1490.69 1141.8C1495.54 1138.68 1502.65 1137.12 1511.83 1137.12C1521.01 1137.12 1528.99 1139.02 1535.4 1143.01C1541.81 1147 1545.1 1152.02 1545.1 1157.91C1545.1 1163.8 1543.37 1168.83 1539.9 1178.19L1481.51 1330.84C1477.52 1341.06 1474.23 1348.69 1471.63 1353.54C1469.03 1358.39 1464.53 1362.55 1458.29 1366.19C1452.05 1369.83 1443.04 1371.56 1431.6 1371.56C1420.17 1371.56 1412.02 1369.83 1405.44 1366.36C1398.86 1362.9 1394.35 1358.91 1391.75 1354.58C1389.15 1350.25 1385.51 1342.62 1381.01 1332.05L1380.83 1331.88Z" fill="#22d3ee"/>
<path d="M774.716 1053.6C773.156 1053.6 771.77 1053.6 770.211 1053.6C680.454 1053.08 591.39 1038 512.723 1009.76C420.713 976.838 346.032 926.935 302.539 869.407C196.668 729.4 250.903 547.981 294.395 402.082C301.153 379.557 307.738 357.551 313.456 336.411C318.481 318.217 323.332 300.196 328.184 282.176C336.848 249.946 345.512 217.89 354.695 185.661C362.666 157.59 370.637 129.693 378.607 101.622C380.687 94.1714 384.152 85.6809 387.791 76.6706C392.816 64.368 402.173 41.4956 400.094 33.6982C395.762 18.6232 409.97 3.89473 431.803 0.602487C453.636 -2.51648 475.122 7.01369 479.974 22.0887L575.969 323.242C622.926 310.766 671.963 302.795 722.213 299.85C752.017 297.77 782.687 297.597 816.822 299.676C868.458 302.795 918.188 310.766 965.666 323.415L1060.97 22.0887C1063.74 13.4249 1072.23 6.14731 1083.84 2.50852C1095.45 -1.13027 1109.14 -0.783722 1120.4 3.3749C1146.05 13.0783 1152.63 32.312 1164.93 103.875C1166.49 113.232 1167.71 120.683 1168.75 124.148C1178.45 158.283 1188.33 192.246 1198.03 226.381C1221.77 308.687 1246.37 393.938 1268.21 478.151L1269.94 484.735C1298.36 594.419 1330.76 718.831 1264.22 833.019C1211.72 922.949 1098.22 997.111 960.294 1031.42C901.38 1045.98 838.828 1053.43 774.543 1053.43L774.716 1053.6ZM443.066 168.16C440.294 177.69 437.695 187.047 434.922 196.577C425.738 228.46 417.248 260.516 408.584 292.399C403.732 310.593 398.881 328.787 393.856 346.981C387.964 368.467 381.38 390.646 374.449 413.519C331.303 557.684 282.613 721.083 374.969 843.416C410.837 890.72 473.043 932.133 550.324 959.857C617.555 983.943 693.796 996.938 770.731 997.285C827.738 997.978 881.454 991.22 932.743 978.571C1049.01 949.634 1144.66 887.601 1188.5 812.226C1246.37 713.112 1217.44 602.043 1189.71 494.785L1187.98 488.2C1166.32 404.508 1141.71 319.603 1117.98 237.47C1111.39 214.425 1104.63 191.552 1098.05 168.507L1034.63 369.333C1031.86 377.824 1023.71 385.101 1012.28 388.74C1000.84 392.552 987.672 392.379 976.236 388.394C924.426 370.2 868.285 359.283 809.718 355.818C780.607 354.085 755.136 354.258 729.491 355.818C671.963 359.283 616.688 370.026 564.879 388.047C553.616 392.032 540.447 392.032 529.011 388.22C517.575 384.408 509.431 377.304 506.658 368.814L442.546 167.814L443.066 168.16Z" fill="#22d3ee"/>
<path d="M772.464 934.039C982.998 934.039 1153.67 816.276 1153.67 671.007C1153.67 525.738 982.998 407.974 772.464 407.974C561.929 407.974 391.257 525.738 391.257 671.007C391.257 816.276 561.929 934.039 772.464 934.039Z" fill="#22d3ee"/>
</svg>
