<svg width="40" height="40" viewBox="0 0 40 40" fill="none" xmlns="http://www.w3.org/2000/svg">
<path d="M10.57 16.23C11.3 16.97 11.725 17.9375 11.9875 18.905C12.5 20.785 12.5 23.11 12.5 24.9075V25C12.5 30.145 11.5375 33.2 10.4475 35.0175C10.0345 35.7323 9.49389 36.3653 8.8525 36.885C8.59737 37.0825 8.32059 37.2502 8.0275 37.385C8.0275 37.385 7.71 37.5 7.5 37.5C7.31978 37.4857 7.14233 37.447 6.9725 37.385C6.67941 37.2502 6.40263 37.0825 6.1475 36.885C5.50611 36.3653 4.9655 35.7323 4.5525 35.0175C3.4625 33.2025 2.5 30.145 2.5 25V24.91C2.5 23.11 2.5 20.7875 3.0125 18.9025C3.275 17.9375 3.7 16.97 4.43 16.2275C3.25 15.11 2.5 13.33 2.5 11.25C2.5 10.435 2.7175 9.46253 3.0175 8.56503C3.3175 7.66753 3.7375 6.73503 4.2225 5.98503C4.8 5.01003 5.6125 4.19253 6.2425 3.64253C6.58916 3.34029 6.94954 3.05416 7.3225 2.78503L7.3975 2.73503L7.42 2.71753L7.4275 2.71253L7.4325 2.71003C7.66183 2.55396 7.93655 2.4786 8.21342 2.49582C8.49028 2.51305 8.75355 2.62187 8.96176 2.80517C9.16997 2.98847 9.3113 3.23581 9.36348 3.50826C9.41567 3.78071 9.37574 4.06277 9.25 4.31003C9.22805 4.38214 9.21709 4.45715 9.2175 4.53253C9.2175 4.69003 9.2575 4.99003 9.635 5.36503C9.8175 5.54753 9.9575 5.67753 10.11 5.82003C10.235 5.93503 10.3675 6.05503 10.535 6.22003C10.86 6.53003 11.2025 6.89503 11.51 7.35253C12.1475 8.31003 12.5 9.50753 12.5 11.25C12.5 13.33 11.75 15.1075 10.57 16.23ZM7.5 17.5C6.875 17.5 6.5 17.695 6.2175 17.975C5.9025 18.2925 5.63 18.8075 5.425 19.56C5.01 21.0875 5 23.0925 5 25C5 29.855 5.9125 32.425 6.6975 33.7325C6.9975 34.2325 7.28 34.555 7.5 34.7575C7.81577 34.4566 8.08609 34.1113 8.3025 33.7325C9.0875 32.4225 10 29.855 10 25C10 23.0925 9.99 21.0875 9.575 19.56C9.37 18.81 9.0975 18.2925 8.7825 17.975C8.5 17.695 8.1225 17.5 7.5 17.5ZM5 11.25C5 13.93 6.5375 15 7.5 15C8.4625 15 10 13.93 10 11.25C10 9.86753 9.7275 9.19003 9.4275 8.74003C9.24461 8.47758 9.03425 8.23538 8.8 8.01753L8.49 7.72753C8.27828 7.53364 8.06992 7.33611 7.865 7.13503C7.59228 6.86383 7.35764 6.55686 7.1675 6.22253C6.84939 6.55723 6.56934 6.92615 6.3325 7.32253C5.9825 7.86003 5.6425 8.59753 5.39 9.35753C5.13 10.1325 5 10.8175 5 11.25ZM17.495 27.4325C16.6284 27.3358 15.776 27.1386 14.955 26.845C14.985 26.2184 15 25.57 15 24.9V24.16C15.775 24.5275 16.615 24.785 17.495 24.91V20C17.495 18.674 18.0218 17.4022 18.9595 16.4645C19.8971 15.5268 21.1689 15 22.495 15H27.4075C27.2087 13.6178 26.6818 12.3032 25.8711 11.1661C25.0604 10.0291 23.9892 9.10256 22.7472 8.46407C21.5053 7.82558 20.1285 7.49363 18.732 7.49598C17.3355 7.49832 15.9598 7.83488 14.72 8.47753C14.5236 7.66022 14.1996 6.87897 13.76 6.16253C15.3803 5.36174 17.1697 4.96314 18.9767 5.00046C20.7837 5.03778 22.5552 5.50993 24.141 6.37693C25.7269 7.24394 27.0805 8.48028 28.0874 9.98129C29.0942 11.4823 29.7245 13.2038 29.925 15H32.4925C33.8186 15 35.0904 15.5268 36.028 16.4645C36.9657 17.4022 37.4925 18.674 37.4925 20V30C37.4925 31.3261 36.9657 32.5979 36.028 33.5356C35.0904 34.4732 33.8186 35 32.4925 35H22.4925C21.1664 35 19.8946 34.4732 18.957 33.5356C18.0193 32.5979 17.4925 31.3261 17.4925 30L17.495 27.4325ZM29.9275 17.5C29.6443 20.0369 28.5068 22.402 26.7019 24.2069C24.8969 26.0119 22.5318 27.1494 19.995 27.4325V30C19.995 30.6631 20.2584 31.299 20.7272 31.7678C21.1961 32.2366 21.832 32.5 22.495 32.5H32.495C33.158 32.5 33.7939 32.2366 34.2628 31.7678C34.7316 31.299 34.995 30.6631 34.995 30V20C34.995 19.337 34.7316 18.7011 34.2628 18.2323C33.7939 17.7634 33.158 17.5 32.495 17.5H29.9275ZM27.4075 17.5H22.495C21.832 17.5 21.1961 17.7634 20.7272 18.2323C20.2584 18.7011 19.995 19.337 19.995 20V24.9125C21.8653 24.643 23.598 23.7753 24.9341 22.4392C26.2703 21.103 27.138 19.3703 27.4075 17.5Z" fill="white"/>
</svg>
