<svg width="40" height="40" viewBox="0 0 40 40" fill="none" xmlns="http://www.w3.org/2000/svg">
<path d="M25.2916 36.6666V34.9849C25.2986 34.545 25.4781 34.1254 25.7913 33.8165C26.1046 33.5076 26.5267 33.3341 26.9666 33.3333H27.0916C29.4783 33.3133 31.5283 31.6566 32.015 29.3533L32.0316 29.2666L32.8983 24.9999L34.465 24.2266C35.3066 23.8133 35.725 23.6049 35.815 23.2266C35.9066 22.8466 35.625 22.4766 35.0633 21.7349L31.8833 17.5549C31.5666 17.1383 31.4083 16.9316 31.325 16.7116C31.2416 16.4916 31.2133 16.1783 31.1616 15.5566C30.5883 8.71158 24.775 3.33325 17.6866 3.33325C10.22 3.33325 4.16663 9.30325 4.16663 16.6666C4.16663 21.2499 6.51163 25.2916 10.0833 27.6916M10.0833 27.6916V36.6666M10.0833 27.6916C11.1261 28.3966 12.2635 28.9505 13.4616 29.3366" stroke="white" stroke-width="3.75" stroke-linecap="round" stroke-linejoin="round"/>
<path d="M23.3333 14.9999L24.8666 16.3216C25.5116 16.8766 25.8333 17.1549 25.8333 17.4999C25.8333 17.8449 25.5116 18.1233 24.8666 18.6783L23.3333 19.9999M11.6666 14.9999L10.1333 16.3216C9.48829 16.8766 9.16663 17.1549 9.16663 17.4999C9.16663 17.8449 9.48829 18.1233 10.1333 18.6783L11.6666 19.9999M19.1666 13.3333L15.8333 21.6666" stroke="white" stroke-width="3.75" stroke-linecap="round" stroke-linejoin="round"/>
</svg>
