<svg width="40" height="40" viewBox="0 0 40 40" fill="none" xmlns="http://www.w3.org/2000/svg">
<path d="M11.6667 23.3333C10.9391 23.3343 10.2206 23.4942 9.56123 23.8016C8.90185 24.109 8.31751 24.5567 7.84898 25.1132C7.38045 25.6698 7.03903 26.3219 6.84854 27.0241C6.65805 27.7262 6.62308 28.4615 6.74607 29.1785C6.86907 29.8956 7.14706 30.5772 7.56065 31.1757C7.97424 31.7742 8.51346 32.2753 9.14069 32.6439C9.76791 33.0125 10.468 33.2398 11.1922 33.31C11.9163 33.3801 12.647 33.2913 13.3333 33.0499" stroke="white" stroke-width="1.5" stroke-linecap="round" stroke-linejoin="round"/>
<path d="M7.10666 26.0083C6.10927 25.5281 5.24714 24.8071 4.59808 23.9104C3.94903 23.0137 3.53347 21.9695 3.38893 20.872C3.24438 19.7745 3.3754 18.6583 3.77014 17.6242C4.16489 16.59 4.81094 15.6704 5.65 14.9483M5.7 14.8133C5.1534 13.9954 4.91383 13.0104 5.0237 12.0329C5.13357 11.0553 5.58578 10.1481 6.30029 9.47188C7.0148 8.79569 7.94552 8.39412 8.92768 8.33825C9.90984 8.28239 10.8801 8.57583 11.6667 9.16664M12.0633 9.27497C11.7975 8.71005 11.6619 8.09259 11.6668 7.46824C11.6716 6.8439 11.8168 6.22862 12.0914 5.6679C12.366 5.10718 12.7632 4.61535 13.2534 4.22876C13.7437 3.84217 14.3146 3.5707 14.9239 3.43443C15.5333 3.29816 16.1654 3.30057 16.7737 3.44148C17.3819 3.58238 17.9507 3.85818 18.4381 4.2485C18.9254 4.63881 19.3188 5.13365 19.5891 5.69645C19.8595 6.25925 19.9999 6.87561 20 7.49997M20 7.49997V33.3333M20 7.49997C20.0001 6.87561 20.1405 6.25925 20.4109 5.69645C20.6812 5.13365 21.0746 4.63881 21.5619 4.2485C22.0493 3.85818 22.6181 3.58238 23.2263 3.44148C23.8346 3.30057 24.4667 3.29816 25.0761 3.43443C25.6854 3.5707 26.2563 3.84217 26.7466 4.22876C27.2368 4.61535 27.634 5.10718 27.9086 5.6679C28.1832 6.22862 28.3283 6.8439 28.3332 7.46824C28.3381 8.09259 28.2025 8.71005 27.9367 9.27497M20 33.3333C20 34.2174 19.6488 35.0652 19.0237 35.6903C18.3986 36.3154 17.5507 36.6666 16.6667 36.6666C15.7826 36.6666 14.9348 36.3154 14.3096 35.6903C13.6845 35.0652 13.3333 34.2174 13.3333 33.3333M20 33.3333C20 34.2174 20.3512 35.0652 20.9763 35.6903C21.6014 36.3154 22.4493 36.6666 23.3333 36.6666M20 11.6666C20 12.9927 20.5268 14.2645 21.4645 15.2022C22.4021 16.1399 23.6739 16.6666 25 16.6666M34.35 14.9483C35.0777 15.5734 35.6615 16.3485 36.0614 17.2205C36.4612 18.0925 36.6677 19.0407 36.6667 20C36.6667 21.1716 36.365 22.2733 35.8333 23.23M34.3 14.8133C34.8466 13.9954 35.0862 13.0104 34.9763 12.0329C34.8664 11.0553 34.4142 10.1481 33.6997 9.47188C32.9852 8.79569 32.0545 8.39412 31.0723 8.33825C30.0902 8.28239 29.1199 8.57583 28.3333 9.16664M34.1667 34.1666L36.6667 36.6666M26.6667 30.8333C26.6667 31.9384 27.1057 32.9982 27.8871 33.7796C28.6685 34.561 29.7283 35 30.8333 35C31.9384 35 32.9982 34.561 33.7796 33.7796C34.561 32.9982 35 31.9384 35 30.8333C35 29.7282 34.561 28.6684 33.7796 27.887C32.9982 27.1056 31.9384 26.6666 30.8333 26.6666C29.7283 26.6666 28.6685 27.1056 27.8871 27.887C27.1057 28.6684 26.6667 29.7282 26.6667 30.8333Z" stroke="white" stroke-width="2" stroke-linecap="round" stroke-linejoin="round"/>
</svg>
