<svg width="24" height="24" viewBox="0 0 24 24" fill="none" xmlns="http://www.w3.org/2000/svg">
<path fill-rule="evenodd" clip-rule="evenodd" d="M5 1C3.93913 1 2.92172 1.42143 2.17157 2.17157C1.42143 2.92172 1 3.93913 1 5V19C1 20.0609 1.42143 21.0783 2.17157 21.8284C2.92172 22.5786 3.93913 23 5 23H19C20.0609 23 21.0783 22.5786 21.8284 21.8284C22.5786 21.0783 23 20.0609 23 19V5C23 3.93913 22.5786 2.92172 21.8284 2.17157C21.0783 1.42143 20.0609 1 19 1H5ZM12.34 4.5H14.727C14.727 6.1 16.079 7.91 18.137 7.91V10.296C16.72 10.198 15.509 9.966 14.727 9.273V15.409C14.727 17.114 13.379 19.5 10.296 19.5C6.53 19.5 5.864 16.09 5.864 15.068C5.864 14.046 6.464 10.636 10.636 10.636V13.023C9.545 12.792 8.25 13.704 8.25 15.068C8.25 16.773 9.273 17.114 10.296 17.114C11.319 17.114 12.341 16.091 12.341 15.068L12.34 4.5Z" fill="white"/>
</svg>
