<svg width="24" height="24" viewBox="0 0 24 24" fill="none" xmlns="http://www.w3.org/2000/svg">
<path d="M7.82888 16.1705C5.67828 14.0158 4.02439 11.4172 2.98288 8.55653C2.40988 6.99253 2.93488 5.27453 4.11288 4.09653L4.84188 3.36853C5.03786 3.17215 5.27066 3.01635 5.52693 2.91005C5.78321 2.80374 6.05793 2.74902 6.33538 2.74902C6.61282 2.74902 6.88755 2.80374 7.14382 2.91005C7.4001 3.01635 7.63289 3.17215 7.82888 3.36853L9.53588 5.07553C9.73226 5.27152 9.88806 5.50431 9.99437 5.76059C10.1007 6.01686 10.1554 6.29159 10.1554 6.56903C10.1554 6.84648 10.1007 7.12121 9.99437 7.37748C9.88806 7.63375 9.73226 7.86655 9.53588 8.06253L9.11588 8.48253C8.94776 8.65061 8.8144 8.85016 8.72342 9.06979C8.63243 9.28941 8.5856 9.52481 8.5856 9.76253C8.5856 10.0003 8.63243 10.2357 8.72342 10.4553C8.8144 10.6749 8.94776 10.8745 9.11588 11.0425L12.9559 14.8835C13.124 15.0516 13.3235 15.185 13.5431 15.276C13.7628 15.367 13.9982 15.4138 14.2359 15.4138C14.4736 15.4138 14.709 15.367 14.9286 15.276C15.1482 15.185 15.3478 15.0516 15.5159 14.8835L15.9369 14.4635C16.1329 14.2672 16.3657 14.1113 16.6219 14.005C16.8782 13.8987 17.1529 13.844 17.4304 13.844C17.7078 13.844 17.9825 13.8987 18.2388 14.005C18.4951 14.1113 18.7279 14.2672 18.9239 14.4635L20.6309 16.1705C20.8273 16.3665 20.9831 16.5993 21.0894 16.8556C21.1957 17.1119 21.2504 17.3866 21.2504 17.664C21.2504 17.9415 21.1957 18.2162 21.0894 18.4725C20.9831 18.7288 20.8273 18.9615 20.6309 19.1575L19.9029 19.8855C18.7249 21.0645 17.0069 21.5895 15.4429 21.0165C12.5822 19.975 9.98364 18.3211 7.82888 16.1705Z" stroke="black" stroke-linejoin="round"/>
</svg>
