<svg width="24" height="24" viewBox="0 0 24 24" fill="none" xmlns="http://www.w3.org/2000/svg">
<path fill-rule="evenodd" clip-rule="evenodd" d="M4.2 5.2L11.76 10.87C11.8292 10.9219 11.9135 10.95 12 10.95C12.0865 10.95 12.1708 10.9219 12.24 10.87L19.8 5.2H4.2ZM20.8 5.95L12.96 11.83C12.683 12.0377 12.3462 12.15 12 12.15C11.6538 12.15 11.317 12.0377 11.04 11.83L3.2 5.95V18.8H20.8V5.95ZM3 4H21C21.2652 4 21.5196 4.10536 21.7071 4.29289C21.8946 4.48043 22 4.73478 22 5V19C22 19.2652 21.8946 19.5196 21.7071 19.7071C21.5196 19.8946 21.2652 20 21 20H3C2.73478 20 2.48043 19.8946 2.29289 19.7071C2.10536 19.5196 2 19.2652 2 19V5C2 4.73478 2.10536 4.48043 2.29289 4.29289C2.48043 4.10536 2.73478 4 3 4Z" fill="black"/>
</svg>
